PathFileType	4	(X/Y/Z)	 s05c0402.trc
DataRate	CameraRate	NumFrames	NumMarkers	Units	OrigDataRate	OrigDataStartFrame	OrigNumFrames
200	200	5	50	mm	200	1251	2000
Frame#	Time	racr			lacr			c7			jug			rlel			rdr			llel			ldr			s2			lic			ric			lasi			rasi			rpsi			lpsi			rgt			lgt			rth1			rth2			rth3			rth4			rlfc			rmfc			rsh1			rsh2			rsh3			rsh4			rlmal			rmmal			rcal			rtoe			rmt5			lth1			lth2			lth4			lth3			llfc			lmfc			lsh1			lsh2			lsh3			lsh4			llmal			lmmal			lcal			ltoe			lmt5			SBIKE			LBIKE			RBIKE			
		X1	Y1	Z1	X2	Y2	Z2	X3	Y3	Z3	X4	Y4	Z4	X5	Y5	Z5	X6	Y6	Z6	X7	Y7	Z7	X8	Y8	Z8	X9	Y9	Z9	X10	Y10	Z10	X11	Y11	Z11	X12	Y12	Z12	X13	Y13	Z13	X14	Y14	Z14	X15	Y15	Z15	X16	Y16	Z16	X17	Y17	Z17	X18	Y18	Z18	X19	Y19	Z19	X20	Y20	Z20	X21	Y21	Z21	X22	Y22	Z22	X23	Y23	Z23	X24	Y24	Z24	X25	Y25	Z25	X26	Y26	Z26	X27	Y27	Z27	X28	Y28	Z28	X29	Y29	Z29	X30	Y30	Z30	X31	Y31	Z31	X32	Y32	Z32	X33	Y33	Z33	X34	Y34	Z34	X35	Y35	Z35	X36	Y36	Z36	X37	Y37	Z37	X38	Y38	Z38	X39	Y39	Z39	X40	Y40	Z40	X41	Y41	Z41	X42	Y42	Z42	X43	Y43	Z43	X44	Y44	Z44	X45	Y45	Z45	X46	Y46	Z46	X47	Y47	Z47	X48	Y48	Z48	X49	Y49	Z49	X50	Y50	Z50	
1251	6.2550	810.782841	1241.442918	-78.232725	799.712058	1290.720265	-377.950875	797.754095	1358.606921	-225.454600	735.882286	1198.912274	-236.960984	582.398563	1128.732945	88.541110	685.408780	965.364234	-32.184674	579.301275	1178.045217	-567.561107	686.564601	966.583569	-492.398929	207.064654	1260.787312	-286.198003	373.708170	1220.472942	-404.108680	328.236448	1271.118043	-129.089479	394.121751	1158.707545	-355.507534	358.594853	1200.895315	-142.605126	246.152269	1307.284890	-247.831181	264.108068	1293.415368	-330.240326	267.012259	1160.896918	-94.381754	277.417571	1131.310245	-427.348445	358.390929	1084.631204	-77.713807	438.738983	1047.794681	-70.950613	488.689289	974.516371	-69.436795	462.167700	1074.185799	-85.043129	596.307207	867.733730	-90.684494	589.370356	863.064189	-204.316974	505.426977	809.949634	-73.033378	459.142235	734.339790	-82.181137	385.604929	691.397732	-87.084636	483.277775	712.733191	-103.450295	291.979992	583.386321	-98.004170	319.171130	606.355915	-173.300614	214.762134	594.325621	-140.250451	447.399151	413.050216	-151.345718	353.904533	447.398287	-79.839755	315.808998	994.763152	-437.961206	357.124835	920.687328	-428.300521	389.674845	927.957800	-411.217427	355.371087	829.831711	-429.420078	364.076792	683.836048	-402.543408	336.448125	675.413971	-297.385843	270.212631	598.634026	-439.707896	234.997628	518.813283	-432.353721	163.899919	465.485512	-437.318822	259.017478	500.842107	-408.039352	98.964660	366.135330	-438.276885	152.925341	373.602374	-365.248373	33.250357	384.218540	-396.270556	193.151402	136.201884	-392.181827	110.001124	205.879021	-458.740762	-258.241408	898.248406	-278.832119	-43.574567	85.702776	-474.715453	-51.844527	80.406737	-77.276657	
1252	6.2600	810.687047	1239.381343	-78.071094	799.111816	1291.591692	-376.960829	797.692238	1358.424108	-224.214178	735.098210	1198.545538	-236.800030	582.516744	1127.949880	89.708568	685.352839	965.644949	-32.493661	579.548855	1178.260177	-566.457584	686.479087	966.403202	-491.568351	207.436556	1262.403212	-286.573322	374.045044	1222.750995	-404.306592	328.205484	1271.127048	-128.885755	394.283165	1160.344178	-356.421247	358.240433	1201.225328	-142.709538	245.820931	1308.522179	-247.366575	264.699006	1295.298597	-330.384547	265.995988	1160.840084	-95.460852	278.709078	1133.180131	-428.520798	355.746960	1082.838981	-77.779882	435.343324	1044.516559	-70.525992	483.934444	970.240958	-69.246071	459.322514	1070.379820	-83.993122	590.438198	862.244914	-90.039257	584.078355	857.833355	-203.199333	499.630587	802.774108	-72.455221	454.879721	726.383942	-81.826364	382.213327	682.028376	-86.842892	479.447205	705.206628	-103.001681	291.442797	572.120163	-97.945010	317.545442	596.414611	-173.515568	213.056439	580.207395	-140.291579	454.471230	410.093241	-150.593951	359.010287	439.127459	-79.841398	319.712690	996.687528	-438.179233	362.482525	923.578335	-427.393864	394.439127	931.595813	-409.620974	362.699849	832.873468	-427.830981	372.543560	686.499534	-401.558052	344.562735	678.124662	-296.653237	276.974036	602.798410	-439.015133	239.781065	523.746045	-431.685604	167.399594	472.306960	-437.205205	263.138800	505.300782	-407.126116	99.326041	374.116448	-438.500189	150.194099	379.692122	-365.372557	34.306759	394.567278	-396.051929	184.662034	140.466773	-392.234463	104.252085	213.484958	-458.481533	-258.082530	898.392993	-278.336613	-43.556796	85.834213	-474.666237	-51.811356	80.427885	-77.243265	
1253	6.2650	810.626534	1237.591757	-77.857595	798.561985	1292.674514	-376.118951	797.760621	1358.378573	-223.066059	734.552430	1198.348321	-236.790962	583.206512	1126.487019	88.732103	685.178139	965.854187	-32.601303	579.842729	1178.454245	-565.395762	686.353532	966.208778	-490.587860	207.895471	1263.828639	-287.081450	374.211981	1224.766877	-404.395943	328.230783	1270.671613	-128.832146	394.368410	1161.775129	-357.173070	358.897932	1200.534254	-143.634732	245.759510	1309.802865	-246.368564	265.400600	1296.764231	-330.110068	264.643972	1160.573642	-95.998945	280.040219	1134.849297	-429.824293	352.937363	1080.423927	-77.843129	431.631108	1040.457108	-69.995521	478.450014	965.343470	-68.753626	456.326763	1066.034038	-82.803469	583.988523	855.862780	-89.418143	578.363316	851.626048	-202.173432	493.193611	794.702938	-71.779447	450.469800	717.239472	-81.408400	378.667373	671.397882	-86.572076	475.356558	696.717100	-102.696967	290.521438	560.200986	-98.381773	315.950825	585.577562	-173.925353	212.156735	564.316039	-141.100283	460.774869	406.376066	-149.324035	363.424787	430.723467	-79.219578	323.713797	998.495225	-438.317782	367.900226	926.471792	-426.421368	399.383330	935.056114	-407.666225	370.045174	835.669967	-426.509144	380.918854	689.255089	-400.721232	352.558513	680.989069	-295.815031	284.071419	606.961902	-438.418729	244.818233	528.882175	-431.142659	171.204786	479.179535	-437.046276	267.463911	509.865059	-406.234668	100.235526	382.271593	-438.740406	147.843728	386.089467	-365.421660	35.863045	405.040061	-395.971493	176.377923	145.259049	-392.200271	98.928350	221.392295	-458.252725	-257.984811	898.380578	-278.305209	-43.537444	86.002309	-474.694315	-51.807318	80.433343	-77.204673	
1254	6.2700	810.679411	1236.060616	-77.618863	798.120365	1294.018060	-375.491095	797.889603	1358.447703	-222.153081	734.513829	1198.243904	-237.069869	582.951268	1127.007396	90.727651	684.917813	966.066021	-32.571132	580.033532	1178.641404	-564.270123	686.156767	966.029170	-489.615607	208.142821	1264.868061	-287.324812	374.399270	1226.615812	-404.546730	328.097720	1269.781596	-128.945274	394.609034	1163.184892	-358.017835	359.302842	1199.510716	-144.311617	245.977691	1310.167588	-246.556368	265.874930	1297.980099	-329.932346	262.951884	1160.062418	-96.455887	281.440552	1136.222755	-431.149968	350.213592	1077.450986	-77.726606	428.132206	1035.551610	-69.837207	473.131181	959.528619	-68.989676	453.518873	1061.154220	-81.804190	577.027750	848.707525	-88.822075	572.322588	844.763884	-201.356367	487.374818	785.401967	-71.115261	445.741331	707.115239	-81.044027	375.038943	659.689324	-86.341199	471.176410	687.477440	-102.496244	289.058028	547.503960	-99.121530	314.488686	573.897310	-174.649744	211.336288	548.251008	-143.222621	466.357593	401.881165	-147.544289	367.040884	421.777492	-78.650170	327.758046	1000.323460	-438.442316	373.305637	929.276616	-425.641349	404.335251	938.568635	-406.657536	377.261433	838.468920	-425.233129	389.117254	691.997158	-399.953125	360.532111	683.874135	-294.972114	291.214460	611.015109	-437.657527	250.003050	533.878394	-430.600541	175.240216	486.128294	-437.107731	272.000657	514.514137	-405.516370	101.448869	390.467022	-439.044266	145.896245	392.783460	-365.390375	37.948189	415.547179	-396.070129	168.652250	150.718021	-392.075036	94.067879	229.678291	-458.051428	-257.967302	898.438870	-278.062193	-43.531604	86.099485	-474.685300	-51.804495	80.408212	-77.208274	
1255	6.2750	810.921294	1234.838307	-77.372001	797.808406	1295.645502	-374.995848	798.094589	1358.630674	-221.384656	734.757939	1198.231309	-237.487179	582.973707	1126.891090	91.662071	684.597090	966.238925	-32.383022	580.229704	1179.007624	-563.083189	685.921161	965.842350	-488.674450	208.526547	1265.398248	-287.300163	374.580506	1228.209023	-404.562060	327.951645	1268.844844	-128.748935	394.764364	1164.121303	-358.689519	359.019163	1198.578570	-144.249283	246.599597	1310.637913	-246.283320	266.605880	1298.637791	-329.524858	261.484740	1158.922328	-97.111527	282.877151	1137.429208	-432.455641	347.249312	1074.257042	-77.755819	424.083591	1030.306884	-69.347736	467.385931	953.458570	-69.017194	449.176879	1055.114852	-80.209359	568.449096	841.201279	-86.910816	565.537625	837.095044	-200.776308	480.749590	775.516757	-70.750074	440.919566	696.323568	-80.925915	371.375666	647.251229	-86.396130	466.492895	677.347340	-102.563347	287.635069	534.514699	-100.153873	313.059404	561.693550	-175.727387	210.210693	532.321959	-145.428558	471.325898	396.579283	-145.462378	370.009747	412.257534	-78.183985	331.788903	1002.040758	-438.812771	378.539672	931.878771	-425.013819	409.378193	942.029358	-406.286356	384.445617	841.429634	-424.553771	397.175745	694.872835	-399.253299	368.396693	686.820937	-293.927067	297.935895	614.897653	-436.599046	255.258377	539.093891	-430.192647	179.380255	493.173014	-437.205005	276.618393	519.108750	-404.914539	103.021631	398.743067	-439.453354	144.373666	399.763153	-365.273395	40.355364	426.617520	-396.719956	161.286970	156.539237	-391.920048	89.833250	238.169749	-457.868482	-257.784037	898.494213	-277.658749	-43.522987	86.137586	-474.642598	-51.783688	80.399135	-77.187947	
